<svg id="Layer_1" data-name="Layer 1" xmlns="http://www.w3.org/2000/svg" viewBox="0 0 382.4 74.95"><defs><style>.cls-1{fill:#4d4d4d;}.cls-2{fill:#fff;}</style></defs><title>Byte-Check_Logo</title><path class="cls-1" d="M206.86,47.86a21,21,0,0,1-29.72,0A20.24,20.24,0,0,1,171,33a20.24,20.24,0,0,1,6.14-14.86,21,21,0,0,1,29.72,0l0,0-5.34,5.34a1.46,1.46,0,0,1-2.07,0l-1.15-1.15a1.52,1.52,0,0,0-.59-.37q-11.27-3.7-17,6.11a1.69,1.69,0,0,0-.17.41q-2.75,10.32,6.49,15.67a1.67,1.67,0,0,0,.4.17q8,2.13,13-2.88l0,0,6.38,6.38ZM219,30V52.54A1.46,1.46,0,0,1,217.54,54h-6.08A1.46,1.46,0,0,1,210,52.54V1.46A1.46,1.46,0,0,1,211.46,0h6.08A1.46,1.46,0,0,1,219,1.46V13.09a1.45,1.45,0,0,0,2.14,1.28A20.51,20.51,0,0,1,231,12a20.24,20.24,0,0,1,14.86,6.14A20.24,20.24,0,0,1,252,33V52.54A1.46,1.46,0,0,1,250.54,54h-6.08A1.46,1.46,0,0,1,243,52.54V30a1.51,1.51,0,0,0-.16-.68Q238.64,21,231,21t-11.84,8.3A1.51,1.51,0,0,0,219,30Zm56.89,14.61q7.38,2,13.58-5a1.51,1.51,0,0,0,.33-.61l.42-1.57a1.46,1.46,0,0,1,1.79-1l7.3,2,0,.06a20.24,20.24,0,0,1-9.8,12.75,21,21,0,0,1-28.69-7.69,20.24,20.24,0,0,1-2.11-15.94,20.24,20.24,0,0,1,9.8-12.75,21,21,0,0,1,28.69,7.69,16.08,16.08,0,0,1,.76,1.5,1.47,1.47,0,0,1-.6,1.88l-1.26.73L272.21,40.38a1.47,1.47,0,0,0-.11,2.47A11.91,11.91,0,0,0,275.89,44.59Zm6.21-23.18q-6.85-1.83-12.68,4a1.67,1.67,0,0,0-.27.35,17.7,17.7,0,0,0-1.75,4.12,1.46,1.46,0,0,0,2.15,1.64l12.88-7.44a1.46,1.46,0,0,0-.31-2.66Zm59.75,26.45a21,21,0,0,1-29.72,0A20.24,20.24,0,0,1,306,33a20.24,20.24,0,0,1,6.14-14.86,21,21,0,0,1,29.72,0l0,0-5.34,5.34a1.46,1.46,0,0,1-2.07,0l-1.15-1.15a1.52,1.52,0,0,0-.59-.37q-11.27-3.7-17,6.11a1.69,1.69,0,0,0-.17.41q-2.75,10.32,6.49,15.67a1.67,1.67,0,0,0,.4.17q8,2.13,13-2.88l0,0,6.38,6.38Zm17.72-19.61,13.25-15.73a1.46,1.46,0,0,1,1.12-.52h7a1.46,1.46,0,0,1,1.14,2.38L364.83,35.69a1.46,1.46,0,0,0,.18,2l16,13.71a1.46,1.46,0,0,1-1,2.57h-7.54a1.46,1.46,0,0,1-.91-.32L359.37,43.9A1.46,1.46,0,0,0,357,45v7.5A1.46,1.46,0,0,1,355.54,54h-6.08A1.46,1.46,0,0,1,348,52.54V1.46A1.46,1.46,0,0,1,349.46,0h6.08A1.46,1.46,0,0,1,357,1.46V27.31A1.46,1.46,0,0,0,359.58,28.25Z"/><path class="cls-2" d="M48,33V13.46A1.46,1.46,0,0,1,49.46,12h6.08A1.46,1.46,0,0,1,57,13.46V36a1.52,1.52,0,0,0,.16.68q5.36,10.59,16.31,7.67a1.68,1.68,0,0,0,.4-.17Q81,40.07,81,33V13.46A1.46,1.46,0,0,1,82.46,12h6.08A1.46,1.46,0,0,1,90,13.46V54A21,21,0,0,1,70.58,74.95,1.47,1.47,0,0,1,69,73.49V67.38a1.45,1.45,0,0,1,1.31-1.44q6.7-.66,10.53-8.24A1.51,1.51,0,0,0,81,57V52.91a1.45,1.45,0,0,0-2.14-1.28A20.51,20.51,0,0,1,69,54a20.24,20.24,0,0,1-14.86-6.14A20.24,20.24,0,0,1,48,33Zm57-10.54V36a1.51,1.51,0,0,0,.16.68q3.84,7.58,10.53,8.24A1.45,1.45,0,0,1,117,46.38v6.11a1.47,1.47,0,0,1-1.58,1.46,20.12,20.12,0,0,1-13.28-6.09A20.24,20.24,0,0,1,96,33V1.46A1.46,1.46,0,0,1,97.46,0h6.08A1.46,1.46,0,0,1,105,1.46v9.08A1.46,1.46,0,0,0,106.46,12h9.08A1.46,1.46,0,0,1,117,13.46v6.08A1.46,1.46,0,0,1,115.54,21h-9.08A1.46,1.46,0,0,0,105,22.46Zm35.89,22.13q7.38,2,13.58-5a1.51,1.51,0,0,0,.33-.61l.42-1.57a1.46,1.46,0,0,1,1.79-1l7.3,2,0,.06a20.24,20.24,0,0,1-9.8,12.75,21,21,0,0,1-28.69-7.69,20.24,20.24,0,0,1-2.11-15.94,20.24,20.24,0,0,1,9.8-12.75,21,21,0,0,1,28.69,7.69,16.08,16.08,0,0,1,.76,1.5,1.47,1.47,0,0,1-.6,1.88l-1.26.73L137.21,40.38a1.47,1.47,0,0,0-.11,2.47A11.91,11.91,0,0,0,140.89,44.59Zm6.21-23.18q-6.85-1.83-12.68,4a1.67,1.67,0,0,0-.27.35,17.7,17.7,0,0,0-1.75,4.12,1.46,1.46,0,0,0,2.15,1.64l12.88-7.44a1.46,1.46,0,0,0-.31-2.66ZM35.86,18.14A20.24,20.24,0,0,0,21,12a20.51,20.51,0,0,0-9.86,2.37A1.45,1.45,0,0,1,9,13.09V1.46A1.46,1.46,0,0,0,7.54,0H1.46A1.46,1.46,0,0,0,0,1.46V33a22.21,22.21,0,0,0,.48,4.67h0a19.91,19.91,0,0,0,.55,2l.16.47c.05.15.1.3.15.45h0A20,20,0,0,0,4.44,46h0q4.79-4,12-2a1.68,1.68,0,0,1,.4.17q6.35,3.68,7,9.7v0a19.93,19.93,0,0,0,5.79-1.66v0l.54-.27.49-.25a20,20,0,0,0,1.78-1,22.17,22.17,0,0,0,3.34-2.76A20.24,20.24,0,0,0,42,33,20.24,20.24,0,0,0,35.86,18.14Zm-3,17a12.92,12.92,0,0,1-3.09,6.11,1.46,1.46,0,0,1-2.14,0q-.36-.4-.75-.79A20.24,20.24,0,0,0,12,34.29a23.21,23.21,0,0,0-2.91.18h0A13.1,13.1,0,0,1,9,33q0-7.07,7.13-11.2a1.67,1.67,0,0,1,.4-.17q8-2.12,13,2.88a11.84,11.84,0,0,1,3.4,10.35A2.11,2.11,0,0,1,32.84,35.1Z"/></svg>