<svg xmlns="http://www.w3.org/2000/svg" version="1.0" width="16000" height="16000" preserveAspectRatio="xMidYMid meet" style=""><rect id="backgroundrect" width="100%" height="100%" x="0" y="0" fill="none" stroke="none"/>




<g class="currentLayer" style=""><title>Layer 1</title><g id="layer101" fill="#012952" stroke="none" class="">
 <path d="M1653 10137 c-33 -17 -47 -32 -60 -67 -20 -51 -23 -156 -6 -235 49 -224 47 -206 27 -291 -24 -106 -89 -229 -145 -280 -30 -27 -99 -64 -119 -64 -21 0 -125 -43 -145 -60 -9 -8 -26 -31 -37 -53 -30 -59 -70 -104 -126 -139 -28 -17 -37 -18 -62 -8 -16 7 -36 23 -45 36 -22 34 -19 132 5 196 22 58 27 166 10 199 -24 44 -106 63 -147 34 -44 -31 -41 -92 14 -294 27 -95 12 -175 -53 -294 -27 -49 -110 -123 -175 -157 -35 -18 -71 -38 -79 -44 -8 -7 -26 -18 -40 -24 -83 -42 -133 -89 -166 -158 l-24 -51 0 -809 0 -809 24 -50 c25 -54 88 -116 152 -151 48 -26 109 -61 149 -85 17 -10 53 -31 80 -46 28 -15 58 -32 67 -38 10 -5 75 -43 145 -83 70 -40 135 -77 143 -82 8 -5 47 -28 85 -50 39 -23 86 -50 105 -62 19 -11 60 -34 90 -51 30 -16 66 -37 80 -46 14 -8 34 -21 45 -27 11 -6 37 -21 58 -32 20 -12 54 -32 75 -43 20 -12 51 -30 67 -40 91 -56 138 -71 215 -66 76 4 107 14 191 64 26 16 201 117 390 226 189 109 351 203 359 208 17 10 95 55 225 129 198 113 281 163 299 178 10 10 32 35 47 56 l29 39 0 862 0 863 -53 68 c-30 38 -79 108 -110 157 -106 164 -162 204 -304 218 -166 17 -300 66 -366 134 -55 56 -75 128 -81 287 -5 147 -16 186 -61 231 -23 23 -36 27 -82 27 -46 0 -57 -4 -78 -27 -14 -16 -29 -52 -35 -83 -20 -97 -33 -131 -58 -151 -35 -27 -54 -24 -111 21 -102 81 -197 218 -208 301 -5 36 23 178 52 259 8 23 15 75 15 115 0 64 -3 77 -25 103 -54 64 -161 81 -242 39z" id="svg_1"/>
 <path d="M10025 8410 c-11 -5 -30 -9 -43 -9 -52 -2 -152 -61 -222 -131 -72 -73 -102 -129 -130 -248 -25 -105 -25 -189 -1 -289 26 -110 63 -177 140 -253 131 -131 316 -178 511 -131 198 47 328 182 376 388 19 82 15 251 -6 313 -37 105 -68 158 -130 221 -72 73 -139 111 -236 134 -70 16 -226 19 -259 5z m231 -195 c56 -19 127 -79 158 -134 10 -19 25 -70 33 -115 12 -66 12 -96 2 -161 -26 -177 -120 -269 -284 -282 -137 -10 -247 50 -303 167 -24 50 -26 66 -26 185 -1 121 1 134 26 186 71 148 227 209 394 154z" id="svg_2"/>
 <path d="M11996 8406 c-53 -17 -106 -64 -133 -118 l-23 -45 0 -732 0 -731 100 0 100 0 0 654 c0 399 4 674 10 707 14 73 39 97 104 101 l51 3 -3 70 c-5 101 -9 105 -95 104 -40 -1 -89 -7 -111 -13z" id="svg_3"/>
 <path d="M14055 8410 c-11 -5 -30 -9 -43 -9 -13 -1 -42 -10 -64 -21 -23 -11 -46 -20 -51 -20 -23 0 -136 -93 -182 -152 -29 -36 -66 -117 -84 -183 -28 -99 -27 -211 0 -312 53 -196 175 -316 367 -364 95 -24 170 -24 269 0 139 34 228 102 284 217 36 77 55 191 43 259 l-9 50 -378 3 c-207 1 -377 6 -377 11 0 4 4 32 10 60 19 99 63 171 134 219 45 31 185 72 240 72 26 -1 207 -37 282 -56 20 -6 28 13 49 129 9 49 -198 108 -376 106 -52 0 -103 -4 -114 -9z m325 -687 c-1 -28 -34 -111 -53 -131 -47 -51 -95 -67 -197 -67 -84 0 -101 3 -147 27 -54 29 -86 65 -122 136 l-21 42 270 0 c148 0 270 -3 270 -7z" id="svg_4"/>
 <path d="M10768 8403 c-17 -4 -18 -38 -18 -529 l0 -525 83 3 82 3 6 42 c3 24 7 45 10 47 2 3 32 -13 66 -34 69 -45 192 -80 276 -80 71 0 195 28 229 51 14 11 30 19 35 19 18 0 91 86 116 136 49 96 57 173 57 532 l0 330 -22 6 c-13 3 -50 6 -83 6 -33 0 -70 -3 -82 -6 l-23 -6 0 -311 c0 -189 -4 -334 -11 -372 -23 -124 -93 -183 -229 -192 -103 -7 -203 23 -261 79 l-39 38 0 379 0 379 -31 6 c-35 7 -134 6 -161 -1z" id="svg_5"/>
 <path d="M12253 8403 c-10 -4 -13 -119 -13 -529 l0 -524 100 0 100 0 0 524 c0 468 -2 525 -16 530 -19 7 -153 7 -171 -1z" id="svg_6"/>
 <path d="M3873 8377 c-28 -12 -60 -30 -70 -40 -11 -9 -23 -17 -26 -17 -6 0 -37 -31 -75 -75 -7 -9 -25 -41 -40 -73 l-27 -57 0 -500 0 -500 28 -58 c39 -80 128 -166 203 -195 l59 -23 645 3 645 3 3 155 c1 85 0 165 -3 178 l-5 22 -605 0 -605 0 2 418 3 417 606 3 607 2 6 23 c8 29 8 285 0 315 l-6 22 -647 -1 c-640 -1 -646 -1 -698 -22z" id="svg_8"/>
 <path d="M5545 8388 c-3 -7 -4 -357 -3 -778 l3 -765 179 -3 c137 -2 181 1 188 10 9 15 11 1508 2 1532 -5 14 -31 16 -185 16 -135 0 -181 -3 -184 -12z" id="svg_9"/>
 <path d="M6386 8376 c-74 -28 -164 -108 -200 -175 -14 -28 -30 -81 -36 -118 -14 -101 -12 -862 3 -948 21 -119 98 -214 218 -270 l54 -25 472 0 473 0 2 -257 3 -258 175 0 175 0 3 1038 2 1037 -642 -1 c-643 0 -643 0 -702 -23z m979 -358 c3 -13 4 -201 3 -418 l-3 -395 -425 0 -425 0 -3 395 c-1 217 0 405 3 418 l5 22 420 0 420 0 5 -22z" id="svg_10"/>
 <path d="M8057 8393 c-4 -3 -7 -276 -7 -605 0 -524 2 -607 17 -666 27 -111 98 -198 204 -251 l62 -31 484 0 483 0 -2 178 -3 177 -433 5 -433 5 1 572 c0 315 -2 584 -6 598 l-6 25 -177 0 c-98 0 -181 -3 -184 -7z" id="svg_11"/>
 <path d="M9000 8220 l0 -160 165 0 165 0 0 160 0 160 -165 0 -165 0 0 -160z" id="svg_12"/>
 <path d="M12240 7010 l0 -110 100 0 100 0 0 110 0 110 -100 0 -100 0 0 -110z" id="svg_13"/>
 <path d="M5552 6688 c-8 -8 -12 -62 -12 -178 0 -116 4 -170 12 -178 8 -8 61 -12 174 -12 134 0 165 3 178 16 24 23 24 325 0 348 -13 13 -44 16 -178 16 -113 0 -166 -4 -174 -12z" id="svg_14"/>
 </g><g id="layer102" fill="#0b294f" stroke="#143389" class="selected" stroke-opacity="1" fill-opacity="1">
 </g><g id="layer103" fill="#fffffe" stroke="none" class="">

 </g></g></svg>