<svg xmlns="http://www.w3.org/2000/svg" version="1.0" width="800" height="608" preserveAspectRatio="xMidYMid meet"  xmlns:xlink="http://www.w3.org/1999/xlink" viewBox="0 -1600.33056640625 29439.998046875 1469.546875">



<g class="currentLayer" style=""><title>Layer 1</title><g id="layer101" fill="#012952" stroke="none" class="">
 <path d="M1635 4853 c-108 -56 -127 -161 -73 -388 15 -63 22 -121 22 -191 -1 -96 -3 -106 -40 -185 -21 -46 -49 -100 -63 -119 -34 -48 -103 -120 -116 -120 -13 0 -205 -72 -226 -85 -9 -6 -29 -32 -44 -60 -33 -59 -93 -135 -107 -135 -5 0 -21 -9 -35 -20 -36 -28 -60 -25 -99 14 -32 32 -34 38 -34 100 0 43 9 92 25 142 39 119 30 198 -27 238 -32 23 -110 21 -132 -3 -36 -40 -32 -96 20 -312 19 -79 17 -155 -6 -221 -24 -68 -96 -174 -142 -208 -49 -37 -98 -70 -103 -70 -7 0 -163 -91 -205 -119 -57 -38 -108 -115 -115 -175 -3 -28 -5 -447 -3 -931 l3 -880 26 -40 c32 -49 98 -109 141 -130 18 -8 74 -39 123 -69 50 -30 94 -55 99 -55 5 -1 17 -7 25 -15 9 -7 42 -27 74 -44 31 -17 74 -43 94 -57 21 -14 41 -25 46 -25 4 0 31 -16 60 -35 28 -19 56 -35 60 -35 5 0 32 -16 61 -35 29 -19 56 -35 60 -35 3 0 25 -11 47 -26 43 -26 73 -44 179 -104 36 -20 105 -60 154 -88 49 -29 92 -52 95 -52 4 0 17 -8 31 -17 13 -10 49 -32 79 -50 31 -17 74 -42 96 -55 35 -20 53 -23 150 -23 110 0 111 0 173 38 35 20 66 37 69 37 3 0 17 8 31 19 15 10 52 32 82 48 58 32 99 55 300 173 112 66 183 107 275 158 16 9 53 32 83 49 29 18 56 33 60 33 4 0 24 11 44 25 20 14 56 36 80 48 24 13 70 40 103 59 33 19 110 63 170 98 121 69 177 116 206 172 18 36 19 70 19 960 l0 923 -31 53 c-16 29 -36 55 -43 58 -8 3 -33 37 -57 75 -24 39 -59 90 -76 115 -18 24 -33 48 -33 53 0 4 -22 28 -48 53 -50 47 -123 81 -202 92 -256 39 -343 69 -416 143 -72 72 -84 110 -92 300 -7 146 -11 174 -30 215 -40 82 -126 112 -196 68 -34 -20 -66 -97 -66 -156 0 -30 -34 -103 -54 -116 -6 -4 -29 -8 -50 -8 -36 0 -46 7 -130 93 -50 50 -107 119 -126 152 -34 57 -35 63 -34 155 0 80 6 113 37 211 38 121 44 169 27 229 -10 36 -59 82 -105 100 -40 15 -136 11 -170 -7z" id="svg_1"/>
 <path d="M10732 2959 c-52 -9 -89 -24 -166 -68 -49 -28 -126 -92 -126 -105 0 -5 -11 -21 -25 -36 -29 -30 -80 -151 -100 -235 -62 -260 71 -562 295 -669 100 -48 162 -59 309 -54 120 4 130 6 205 41 44 21 104 56 134 79 56 43 125 135 144 191 6 18 14 37 18 42 19 26 40 150 40 236 0 124 -23 213 -82 323 -27 51 -33 59 -96 121 -63 63 -176 122 -257 135 -71 12 -219 11 -293 -1z m240 -203 c160 -34 253 -172 252 -376 -1 -171 -57 -282 -174 -348 -63 -36 -68 -37 -165 -37 -95 0 -104 2 -168 35 -37 19 -74 44 -82 56 -7 12 -20 28 -27 35 -25 27 -36 55 -53 134 -30 134 -7 306 50 381 48 63 108 103 176 118 84 18 111 19 191 2z" id="svg_2"/>
 <path d="M12900 2954 c-59 -19 -112 -67 -141 -129 l-24 -50 -3 -797 -3 -798 115 0 115 0 3 758 c2 561 6 764 15 784 15 34 38 46 105 56 53 7 53 8 51 42 0 19 -5 60 -10 90 l-8 55 -85 2 c-53 1 -102 -4 -130 -13z" id="svg_3"/>
 <path d="M15145 2963 c-77 -10 -182 -57 -257 -114 -49 -37 -128 -124 -128 -140 0 -5 -9 -23 -21 -38 -34 -46 -69 -200 -69 -301 0 -106 35 -252 74 -308 14 -21 26 -42 26 -48 0 -11 150 -154 163 -154 5 0 39 -15 76 -32 l66 -33 160 0 160 0 85 41 c100 49 163 106 206 189 45 85 64 216 48 318 l-7 37 -414 0 -414 0 7 48 c8 58 73 199 105 229 100 90 242 126 416 103 54 -7 121 -21 148 -32 76 -28 81 -26 94 40 23 119 26 113 -65 149 -45 18 -112 37 -150 43 -67 9 -247 11 -309 3z m360 -775 c-12 -56 -56 -126 -96 -152 -54 -36 -118 -50 -208 -43 -138 9 -205 60 -268 200 l-12 27 295 0 296 0 -7 -32z" id="svg_4"/>
 <path d="M11547 2954 c-4 -4 -7 -265 -7 -581 l0 -573 90 0 c88 0 91 1 100 26 6 14 10 41 10 59 l0 34 45 -30 c24 -16 75 -44 112 -62 67 -32 69 -32 223 -32 l155 0 70 35 c88 43 137 88 180 166 57 101 65 179 65 601 l0 364 -112 -3 -113 -3 -5 -390 c-5 -385 -5 -391 -28 -435 -31 -59 -48 -77 -102 -109 -41 -24 -54 -26 -155 -26 -105 0 -113 1 -178 34 -40 20 -80 49 -97 71 l-30 38 -2 408 -3 409 -106 3 c-58 1 -108 -1 -112 -4z" id="svg_5"/>
 <path d="M13170,2380l0,-580l110,0l110,0l0,580l0,580l-110,0l-110,0l0,-580Z" id="svg_6"/>
 <path d="M13550 2380 l0 -580 90 0 c87 0 90 1 90 23 0 12 5 39 11 60 l10 38 37 -29 c20 -15 68 -43 107 -62 66 -32 77 -34 201 -38 102 -4 143 -1 187 12 146 42 244 143 289 297 21 70 22 93 23 464 l0 390 -112 3 -113 3 0 -348 c-1 -384 -8 -455 -54 -521 -15 -22 -49 -51 -77 -66 -87 -48 -247 -46 -339 4 -19 10 -45 23 -57 29 -12 6 -30 22 -40 38 -16 25 -18 64 -23 443 l-5 415 -112 3 -113 3 0 -581z" id="svg_7"/>
 <path d="M4060,2931c-117,-48,-191,-115,-242,-219l-33,-67l0,-550l0,-550l23,-45c38,-76,48,-91,93,-137c25,-25,76,-60,119,-81l75,-37l702,-3l703,-2l5,22c3,13,4,102,3,198l-3,175l-660,5c-363,3,-661,7,-663,8c-1,1,-1,203,0,450l3,447l661,3l662,2l6,31c8,40,8,317,0,347l-6,22l-702,0c-656,-1,-704,-2,-746,-19Z" id="svg_8"/>
 <path d="M5867,2943c-4,-3,-7,-383,-7,-843c0,-637,3,-839,12,-848c17,-17,369,-17,386,0c9,9,12,209,12,839c0,455,-3,834,-6,843c-5,14,-32,16,-198,16c-106,0,-196,-3,-199,-7Z" id="svg_9"/>
 <path d="M6800 2931 c-114 -45 -179 -102 -237 -206 l-38 -70 0 -555 0 -555 29 -60 c29 -58 128 -175 149 -175 6 0 18 -6 26 -14 9 -7 42 -23 74 -35 56 -20 72 -21 557 -21 l500 0 0 -275 0 -275 195 0 195 0 0 1130 0 1130 -702 0 c-652 -1 -706 -2 -748 -19z m1058 -832 l2 -447 -22 -6 c-30 -8 -882 -8 -902 0 -14 5 -16 54 -16 448 0 244 3 446 7 449 3 4 214 6 467 5 l461 -3 3 -446z" id="svg_10"/>
 <path d="M8607 2943 c-12 -12 -8 -1309 4 -1361 10 -45 27 -90 51 -139 21 -42 114 -128 169 -155 97 -49 104 -49 629 -46 l495 3 3 198 2 197 -457 0 c-252 0 -467 3 -478 6 -20 5 -20 12 -17 622 2 339 0 632 -3 650 l-6 32 -193 0 c-106 0 -196 -3 -199 -7z" id="svg_11"/>
 <path d="M9640 2755 l0 -175 180 0 180 0 0 175 0 175 -180 0 -180 0 0 -175z" id="svg_12"/>
 <path d="M13177 1553 c-4 -3 -7 -60 -7 -125 l0 -118 110 0 110 0 0 125 0 125 -103 0 c-57 0 -107 -3 -110 -7z" id="svg_13"/>
 <path d="M5876 1084 c-13 -13 -16 -45 -16 -189 0 -95 3 -180 6 -189 5 -14 32 -16 199 -16 167 0 194 2 199 16 3 9 6 94 6 189 0 144 -3 176 -16 189 -23 24 -355 24 -378 0z" id="svg_14"/>
 </g><g id="layer102" fill="#0b2954" stroke="none" class="selected" fill-opacity="1">
 <path d="M1635 4853 c-108 -56 -127 -161 -73 -388 15 -63 22 -121 22 -191 -1 -96 -3 -106 -40 -185 -21 -46 -49 -100 -63 -119 -34 -48 -103 -120 -116 -120 -13 0 -205 -72 -226 -85 -9 -6 -29 -32 -44 -60 -33 -59 -93 -135 -107 -135 -5 0 -21 -9 -35 -20 -36 -28 -60 -25 -99 14 -32 32 -34 38 -34 100 0 43 9 92 25 142 39 119 30 198 -27 238 -32 23 -110 21 -132 -3 -36 -40 -32 -96 20 -312 19 -79 17 -155 -6 -221 -24 -68 -96 -174 -142 -208 -49 -37 -98 -70 -103 -70 -7 0 -163 -91 -205 -119 -57 -38 -108 -115 -115 -175 -3 -28 -5 -447 -3 -931 l3 -880 26 -40 c32 -49 98 -109 141 -130 18 -8 74 -39 123 -69 50 -30 94 -55 99 -55 5 -1 17 -7 25 -15 9 -7 42 -27 74 -44 31 -17 74 -43 94 -57 21 -14 41 -25 46 -25 4 0 31 -16 60 -35 28 -19 56 -35 60 -35 5 0 32 -16 61 -35 29 -19 56 -35 59 -35 4 0 30 -15 59 -32 29 -18 65 -40 80 -48 61 -34 158 -89 242 -138 49 -29 92 -52 95 -52 4 0 17 -8 31 -17 13 -10 49 -32 79 -50 31 -17 74 -42 96 -55 35 -20 53 -23 150 -23 110 0 111 0 173 38 35 20 66 37 69 37 3 0 17 8 31 19 15 10 52 32 82 49 30 16 138 78 240 138 166 96 241 140 335 192 16 9 53 32 83 49 29 18 56 33 60 33 4 0 24 11 44 25 20 14 56 36 80 48 24 13 70 40 103 59 33 19 110 63 170 98 121 69 177 116 206 172 18 36 19 70 19 960 l0 923 -30 53 c-17 28 -35 52 -40 52 -5 0 -29 30 -53 68 -24 37 -57 87 -73 111 -16 24 -34 53 -40 63 -24 41 -89 98 -135 117 -52 23 -89 31 -249 56 -179 29 -294 97 -348 207 -20 41 -24 69 -30 215 -7 146 -11 174 -30 215 -40 82 -126 112 -196 68 -34 -20 -66 -97 -66 -156 0 -30 -34 -103 -54 -116 -6 -4 -29 -8 -50 -8 -36 0 -46 7 -130 93 -50 50 -107 119 -126 152 -34 57 -35 63 -34 155 0 80 6 113 37 211 38 121 44 169 27 229 -10 36 -59 82 -105 100 -40 15 -136 11 -170 -7z" id="svg_15" fill="#0b2954"/>
 </g><g id="layer103" fill="#fffffe" stroke="none" class="">
 <path d="M1823 3320 c-19 -35 -312 -474 -522 -783 -149 -218 -227 -357 -269 -478 -109 -312 -37 -634 192 -861 345 -342 890 -343 1231 -3 233 232 309 543 206 848 -57 167 -133 295 -430 720 -93 133 -217 319 -276 412 -60 94 -110 172 -111 174 -2 2 -11 -11 -21 -29z m-469 -1436 c22 -21 21 -102 -1 -126 -21 -23 -104 -25 -127 -2 -21 21 -21 107 0 128 21 21 107 21 128 0z m550 0 c22 -21 21 -102 -1 -126 -11 -13 -30 -18 -64 -18 -62 0 -79 17 -79 80 0 31 6 54 16 64 21 21 107 21 128 0z m550 0 c22 -21 21 -102 -1 -126 -11 -13 -30 -18 -64 -18 -62 0 -79 17 -79 80 0 31 6 54 16 64 21 21 107 21 128 0z" id="svg_16"/>
 </g></g></svg>