<?xml version="1.0" standalone="no"?>
<!DOCTYPE svg PUBLIC "-//W3C//DTD SVG 20010904//EN"
 "http://www.w3.org/TR/2001/REC-SVG-20010904/DTD/svg10.dtd">
<svg version="1.0" xmlns="http://www.w3.org/2000/svg"
 width="500.000000pt" height="500.000000pt" viewBox="0 0 500.000000 500.000000"
 preserveAspectRatio="xMidYMid meet">
<metadata>
Created by potrace 1.11, written by Peter Selinger 2001-2013
</metadata>
<g transform="translate(0.000000,500.000000) scale(0.100000,-0.100000)"
fill="#000000" stroke="none">
<path d="M701 4932 c-19 -9 -42 -33 -53 -52 -18 -34 -18 -86 -15 -1600 3 -861
7 -1578 10 -1595 3 -16 8 -48 12 -70 23 -144 74 -318 130 -440 7 -17 23 -52
34 -78 29 -67 94 -179 154 -263 l51 -72 76 53 c195 135 364 188 605 188 89 1
184 -8 248 -22 23 -6 53 -12 67 -14 78 -15 113 -31 200 -90 184 -127 331 -280
415 -431 55 -101 98 -230 119 -360 8 -44 -5 -44 175 -10 36 7 212 64 248 80
17 8 34 14 38 14 33 0 328 171 404 235 230 192 379 361 497 565 49 84 58 102
107 210 58 129 116 354 134 516 16 137 9 486 -11 580 -2 12 -7 39 -10 60 -24
150 -112 392 -202 551 -118 210 -345 472 -519 598 -15 11 -46 34 -69 51 -190
140 -478 256 -741 299 -125 21 -410 27 -520 11 -22 -3 -60 -8 -85 -11 -94 -13
-310 -67 -335 -84 -5 -4 -28 -13 -50 -20 -22 -8 -80 -34 -130 -58 -106 -52
-127 -56 -177 -31 -74 36 -72 15 -73 650 0 555 -1 568 -21 595 -44 61 -60 63
-384 63 -257 -1 -299 -3 -329 -18z m1940 -1907 c75 -7 201 -41 266 -71 30 -13
56 -24 58 -24 14 0 149 -90 200 -134 226 -193 354 -420 393 -696 8 -58 8 -251
-1 -315 -6 -46 -38 -161 -68 -245 -36 -102 -144 -274 -216 -346 -22 -23 -68
-40 -100 -37 -7 0 -19 1 -27 2 -8 0 -70 55 -137 121 -171 170 -319 277 -516
374 -67 33 -252 102 -296 110 -12 2 -40 9 -62 15 -22 6 -57 13 -79 17 -21 3
-48 8 -60 10 -92 18 -372 25 -493 11 l-63 -6 -1 32 c-9 222 11 363 74 517 90
219 243 397 477 552 92 61 170 88 315 107 136 18 207 20 336 6z"/>
</g>
</svg>
